<svg width="160" height="40" viewBox="0 0 160 40" fill="none" xmlns="http://www.w3.org/2000/svg">
  <defs>
    <linearGradient id="g1" x1="57.75" y1="20" x2="150" y2="20" gradientUnits="userSpaceOnUse">
      <stop offset="0" stop-color="#34D3F9"/>
      <stop offset="0.5" stop-color="#7E72F9"/>
      <stop offset="1" stop-color="#E93CF4"/>
    </linearGradient>
    <filter id="f1" x="-50%" y="-50%" width="200%" height="200%">
      <feGaussianBlur in="SourceGraphic" stdDeviation="1.5" result="blur"/>
      <feMerge><feMergeNode in="blur"/><feMergeNode in="SourceGraphic"/></feMerge>
    </filter>
    <radialGradient id="r1" cx="0" cy="0" r="1" gradientUnits="userSpaceOnUse" gradientTransform="translate(140 5) rotate(90) scale(4.5 4.5)">
        <stop stop-color="#FFFFFF"/>
        <stop offset="1" stop-color="#E93CF4" stop-opacity="0"/>
    </radialGradient>
  </defs>

  <g filter="url(#f1)">
    <g stroke="url(#g1)" stroke-width="1.5" fill="none">
      <circle cx="15.5" cy="20" r="8"/>
      <circle cx="28.5" cy="20" r="8"/>
    </g>
    <g stroke="url(#g1)" stroke-width="1.5" fill="none">
        <path d="M15.5 12V6M15.5 28V34M7 20H1" stroke-linecap="round"/>
        <path d="M28.5 12V6M28.5 28V34M37 20H43" stroke-linecap="round"/>
    </g>
    <g fill="url(#g1)">
      <circle cx="15.5" cy="6" r="1.25"/><circle cx="15.5" cy="34" r="1.25"/><circle cx="1" cy="20" r="1.25"/>
      <circle cx="28.5" cy="6" r="1.25"/><circle cx="28.5" cy="34" r="1.25"/><circle cx="43" cy="20" r="1.25"/>
    </g>
  </g>

  <text x="50" y="28" font-family="Arial, sans-serif" font-weight="700" font-size="28" fill="url(#g1)" filter="url(#f1)">
    Evenity
  </text>

  <g transform="translate(140 5)" filter="url(#f1)">
    <path fill="url(#r1)" d="M2.5 0L3.12 1.88L5 2.5L3.12 3.12L2.5 5L1.88 3.12L0 2.5L1.88 1.88L2.5 0Z" />
  </g>
</svg>